<svg width="18" height="19" viewBox="0 0 18 19" fill="none" xmlns="http://www.w3.org/2000/svg">
<path d="M15.375 8.1425H13.2075C11.43 8.1425 9.9825 6.695 9.9825 4.9175V2.75C9.9825 2.3375 9.645 2 9.2325 2H6.0525C3.7425 2 1.875 3.5 1.875 6.1775V12.8225C1.875 15.5 3.7425 17 6.0525 17H11.9475C14.2575 17 16.125 15.5 16.125 12.8225V8.8925C16.125 8.48 15.7875 8.1425 15.375 8.1425Z" fill="#16A75C"/>
<path d="M11.8498 2.15786C11.5423 1.85036 11.0098 2.06036 11.0098 2.48786V5.10536C11.0098 6.20036 11.9398 7.10786 13.0723 7.10786C13.7848 7.11536 14.7748 7.11536 15.6223 7.11536C16.0498 7.11536 16.2748 6.61286 15.9748 6.31286C14.8948 5.22536 12.9598 3.26786 11.8498 2.15786Z" fill="#16A75C"/>
</svg>
