<svg width="20" height="20" viewBox="0 0 20 20" fill="none" xmlns="http://www.w3.org/2000/svg">
<g id="Cari">
<path id="icon" fill-rule="evenodd" clip-rule="evenodd" d="M12.8303 14.4466C11.7094 15.2448 10.3381 15.7143 8.85714 15.7143C5.07005 15.7143 2 12.6442 2 8.85714C2 5.07005 5.07005 2 8.85714 2C12.6442 2 15.7143 5.07005 15.7143 8.85714C15.7143 10.3381 15.2448 11.7094 14.4466 12.8303L17.6653 16.049C18.1116 16.4953 18.1116 17.219 17.6653 17.6653C17.219 18.1116 16.4953 18.1116 16.049 17.6653L12.8303 14.4466ZM13.4286 8.85714C13.4286 11.3819 11.3819 13.4286 8.85714 13.4286C6.33241 13.4286 4.28571 11.3819 4.28571 8.85714C4.28571 6.33241 6.33241 4.28571 8.85714 4.28571C11.3819 4.28571 13.4286 6.33241 13.4286 8.85714Z" fill="white"/>
</g>
</svg>
