<svg width="24" height="24" viewBox="0 0 24 24" fill="none" xmlns="http://www.w3.org/2000/svg">
<rect width="24" height="24" rx="4" fill="#E3F2FD"/>
<path d="M14.4 11.2004H20V12.8004H14.4V11.2004ZM15.2 14.4004H20V16.0004H15.2V14.4004ZM13.6 8.00039H20V9.60039H13.6V8.00039ZM5.6 17.6004H13.6V16.8004C13.6 14.5948 11.8056 12.8004 9.6 12.8004H8C5.7944 12.8004 4 14.5948 4 16.8004V17.6004H5.6ZM8.8 12.0004C10.396 12.0004 11.6 10.7964 11.6 9.20039C11.6 7.60439 10.396 6.40039 8.8 6.40039C7.204 6.40039 6 7.60439 6 9.20039C6 10.7964 7.204 12.0004 8.8 12.0004Z" fill="#1E88E5"/>
</svg>
