<svg width="24" height="24" viewBox="0 0 24 24" fill="none" xmlns="http://www.w3.org/2000/svg">
<rect width="24" height="24" rx="4" fill="#E3F2FD"/>
<path d="M11.9008 14.4916C11.7424 14.4916 11.5841 14.4333 11.4591 14.3083L9.32578 12.1749C9.08411 11.9333 9.08411 11.5333 9.32578 11.2916C9.56745 11.0499 9.96745 11.0499 10.2091 11.2916L11.9008 12.9833L13.5924 11.2916C13.8341 11.0499 14.2341 11.0499 14.4758 11.2916C14.7174 11.5333 14.7174 11.9333 14.4758 12.1749L12.3424 14.3083C12.2174 14.4333 12.0591 14.4916 11.9008 14.4916Z" fill="#1E88E5"/>
<path d="M11.8984 14.433C11.5568 14.433 11.2734 14.1497 11.2734 13.808V5.33301C11.2734 4.99134 11.5568 4.70801 11.8984 4.70801C12.2401 4.70801 12.5234 4.99134 12.5234 5.33301V13.808C12.5234 14.1497 12.2401 14.433 11.8984 14.433Z" fill="#1E88E5"/>
<path d="M11.9987 19.4421C7.70703 19.4421 4.70703 16.4421 4.70703 12.1504C4.70703 11.8087 4.99036 11.5254 5.33203 11.5254C5.6737 11.5254 5.95703 11.8087 5.95703 12.1504C5.95703 15.7087 8.44036 18.1921 11.9987 18.1921C15.557 18.1921 18.0404 15.7087 18.0404 12.1504C18.0404 11.8087 18.3237 11.5254 18.6654 11.5254C19.007 11.5254 19.2904 11.8087 19.2904 12.1504C19.2904 16.4421 16.2904 19.4421 11.9987 19.4421Z" fill="#1E88E5"/>
</svg>
