<svg width="24" height="24" viewBox="0 0 24 24" fill="none" xmlns="http://www.w3.org/2000/svg">
<rect width="24" height="24" rx="4" fill="#E3F2FD"/>
<path d="M15.654 3.91722C16.877 2.69426 18.8598 2.69426 20.0828 3.91722C21.2548 5.08923 21.3036 6.95909 20.2293 8.18925L20.0828 8.34597L9.27352 19.1552C9.04273 19.386 8.76508 19.5633 8.46028 19.6756L8.27429 19.7351L3.7113 20.9796C3.32129 21.0859 2.96113 20.7612 3.00338 20.378L3.02045 20.2887L4.2649 15.7257C4.35078 15.4108 4.50389 15.1192 4.71281 14.8704L4.84477 14.7265L15.654 3.91722ZM14.6861 6.47712L5.64047 15.5222C5.53661 15.626 5.45443 15.7489 5.3981 15.8835L5.35053 16.0218L4.36407 19.6347L7.97821 18.6495C8.07267 18.6237 8.16296 18.5858 8.24694 18.5371L8.36791 18.456L8.47782 18.3595L17.5229 9.31396L14.6861 6.47712ZM19.2871 4.71292C18.5471 3.97293 17.3729 3.93182 16.5847 4.58959L16.4497 4.71292L15.4816 5.68155L18.3185 8.51838L19.2871 7.55027C20.0271 6.81029 20.0682 5.63608 19.4104 4.84784L19.2871 4.71292Z" fill="#1E88E5"/>
</svg>
