<svg width="20" height="20" viewBox="0 0 20 20" fill="none" xmlns="http://www.w3.org/2000/svg">
<path d="M4.39983 4.4L8.93723 10.0707C9.13584 10.3191 9.24398 10.6277 9.24383 10.9457V15.6L10.6438 14.55V10.945C10.6438 10.6272 10.752 10.3189 10.9504 10.0707L15.4878 4.4H4.40053H4.39983ZM4.39983 3H15.4878C15.7516 3.00003 16.0099 3.07457 16.2332 3.21502C16.4564 3.35547 16.6354 3.55612 16.7496 3.79386C16.8638 4.0316 16.9085 4.29677 16.8786 4.55881C16.8487 4.82085 16.7454 5.06911 16.5805 5.275L12.0438 10.945V14.55C12.0438 14.7673 11.9932 14.9817 11.896 15.1761C11.7988 15.3705 11.6577 15.5396 11.4838 15.67L10.0838 16.72C9.87583 16.876 9.6285 16.971 9.36955 16.9943C9.11061 17.0177 8.85028 16.9685 8.61773 16.8522C8.38518 16.7359 8.1896 16.5572 8.05292 16.336C7.91623 16.1149 7.84383 15.86 7.84383 15.6V10.945L3.30713 5.275C3.14229 5.06911 3.03896 4.82085 3.00904 4.55881C2.97912 4.29677 3.02383 4.0316 3.13802 3.79386C3.25221 3.55612 3.43123 3.35547 3.65447 3.21502C3.87771 3.07457 4.13608 3.00003 4.39983 3V3Z" fill="black"/>
</svg>
