<svg width="20" height="20" viewBox="0 0 20 20" fill="none" xmlns="http://www.w3.org/2000/svg">
<path d="M16.85 3.7H15.5V1.9C15.5 1.66131 15.4052 1.43239 15.2364 1.2636C15.0676 1.09482 14.8387 1 14.6 1C14.3613 1 14.1324 1.09482 13.9636 1.2636C13.7948 1.43239 13.7 1.66131 13.7 1.9V3.7L6.5 3.7V1.9C6.5 1.66131 6.40518 1.43239 6.2364 1.2636C6.06761 1.09482 5.8387 1 5.6 1C5.36131 1 5.13239 1.09482 4.9636 1.2636C4.79482 1.43239 4.7 1.66131 4.7 1.9V3.7L3.35 3.7C2.99196 3.7 2.64858 3.84223 2.39541 4.09541C2.14223 4.34858 2 4.69196 2 5.05L2 17.65C2 18.008 2.14223 18.3514 2.39541 18.6046C2.64858 18.8578 2.99196 19 3.35 19L16.85 19C17.208 19 17.5514 18.8578 17.8046 18.6046C18.0578 18.3514 18.2 18.008 18.2 17.65L18.2 5.05C18.2 4.69196 18.0578 4.34858 17.8046 4.09541C17.5514 3.84223 17.208 3.7 16.85 3.7ZM16.4 5.5V7.3L3.8 7.3V5.5L16.4 5.5ZM3.8 17.2L3.8 9.1L16.4 9.1V17.2L3.8 17.2Z" fill="#757575"/>
<path d="M11.0002 10.8999H9.2002V12.6999H11.0002V10.8999Z" fill="#757575"/>
<path d="M14.5998 10.8999H12.7998V12.6999H14.5998V10.8999Z" fill="#757575"/>
<path d="M7.4001 14.5H5.6001V16.3H7.4001V14.5Z" fill="#757575"/>
<path d="M11.0002 14.5H9.2002V16.3H11.0002V14.5Z" fill="#757575"/>
<path d="M14.5998 14.5H12.7998V16.3H14.5998V14.5Z" fill="#757575"/>
</svg>
