<svg width="24" height="24" viewBox="0 0 24 24" fill="none" xmlns="http://www.w3.org/2000/svg">
<rect width="24" height="24" rx="4" fill="#E6F6EC"/>
<path fill-rule="evenodd" clip-rule="evenodd" d="M5.61113 5.6022C9.11425 2.1037 14.8097 2.14063 18.334 5.6659C21.8602 9.19209 21.8972 14.8903 18.3931 18.3934C14.89 21.8965 9.19179 21.8605 5.66559 18.3343C4.67374 17.3466 3.92432 16.1424 3.47619 14.8162C3.02806 13.4901 2.8934 12.0781 3.0828 10.6912C3.10764 10.5092 3.20378 10.3445 3.35006 10.2333C3.49634 10.1222 3.68078 10.0737 3.8628 10.0986C4.04483 10.1234 4.20952 10.2196 4.32066 10.3658C4.4318 10.5121 4.48028 10.6965 4.45543 10.8786C4.29466 12.0539 4.40863 13.2506 4.78839 14.3745C5.16815 15.4984 5.80334 16.5189 6.64407 17.3559C9.63949 20.3504 14.4608 20.3679 17.4147 17.415C20.3676 14.4611 20.3501 9.63979 17.3556 6.64437C14.362 3.65172 9.54349 3.63233 6.58961 6.5816L7.28007 6.58437C7.37099 6.58479 7.46093 6.60312 7.54477 6.6383C7.6286 6.67349 7.70468 6.72484 7.76867 6.78943C7.83266 6.85402 7.8833 6.93057 7.9177 7.01473C7.9521 7.09889 7.96958 7.189 7.96916 7.27991C7.96874 7.37083 7.95041 7.46077 7.91522 7.54461C7.88004 7.62844 7.82869 7.70452 7.7641 7.76851C7.69951 7.8325 7.62295 7.88314 7.5388 7.91754C7.45464 7.95194 7.36453 7.96942 7.27361 7.969L4.92343 7.95792C4.74094 7.95695 4.56621 7.88396 4.43725 7.75483C4.30829 7.6257 4.23554 7.45087 4.23481 7.26838L4.22281 4.92004C4.22232 4.82913 4.23975 4.739 4.2741 4.65482C4.30844 4.57064 4.35903 4.49405 4.42297 4.42942C4.48692 4.36479 4.56297 4.31339 4.64678 4.27815C4.73059 4.24291 4.82052 4.22452 4.91143 4.22403C5.00235 4.22355 5.09247 4.24098 5.17665 4.27532C5.26083 4.30966 5.33742 4.36025 5.40206 4.4242C5.46669 4.48814 5.51809 4.56419 5.55333 4.648C5.58857 4.73181 5.60696 4.82174 5.60744 4.91266L5.61113 5.60313V5.6022ZM11.9989 7.61453C12.1825 7.61453 12.3586 7.68747 12.4884 7.81731C12.6183 7.94714 12.6912 8.12324 12.6912 8.30685V11.713L14.7968 13.8177C14.8629 13.8815 14.9157 13.9579 14.952 14.0423C14.9884 14.1268 15.0075 14.2176 15.0083 14.3095C15.0092 14.4015 14.9917 14.4926 14.9569 14.5777C14.9222 14.6628 14.8708 14.7402 14.8058 14.8052C14.7408 14.8702 14.6636 14.9217 14.5785 14.9565C14.4934 14.9914 14.4023 15.0089 14.3104 15.0082C14.2184 15.0074 14.1276 14.9884 14.0431 14.9521C13.9586 14.9159 13.8822 14.8632 13.8183 14.7971L11.3075 12.2863V8.30777C11.3075 8.12416 11.3804 7.94807 11.5103 7.81823C11.6401 7.6884 11.8162 7.61546 11.9998 7.61546L11.9989 7.61453Z" fill="#16A75C"/>
</svg>
