<svg width="25" height="24" viewBox="0 0 25 24" fill="none" xmlns="http://www.w3.org/2000/svg">
<rect x="0.200195" width="24" height="24" rx="4" fill="#E6F6EC"/>
<path d="M14.2336 8.04141C14.0752 8.04141 13.9169 7.98307 13.7919 7.85807L12.1002 6.16641L10.4086 7.85807C10.1669 8.09974 9.76691 8.09974 9.52524 7.85807C9.28358 7.61641 9.28358 7.21641 9.52524 6.97474L11.6586 4.84141C11.9002 4.59974 12.3002 4.59974 12.5419 4.84141L14.6752 6.97474C14.9169 7.21641 14.9169 7.61641 14.6752 7.85807C14.5502 7.98307 14.3919 8.04141 14.2336 8.04141Z" fill="#16A75C"/>
<path d="M12.1001 14.4418C11.7584 14.4418 11.4751 14.1585 11.4751 13.8168V5.3418C11.4751 5.00013 11.7584 4.7168 12.1001 4.7168C12.4418 4.7168 12.7251 5.00013 12.7251 5.3418V13.8168C12.7251 14.1668 12.4418 14.4418 12.1001 14.4418Z" fill="#16A75C"/>
<path d="M12.2001 19.2917C7.90845 19.2917 4.90845 16.2917 4.90845 12C4.90845 11.6583 5.19178 11.375 5.53345 11.375C5.87511 11.375 6.15845 11.6583 6.15845 12C6.15845 15.5583 8.64178 18.0417 12.2001 18.0417C15.7584 18.0417 18.2418 15.5583 18.2418 12C18.2418 11.6583 18.5251 11.375 18.8668 11.375C19.2084 11.375 19.4918 11.6583 19.4918 12C19.4918 16.2917 16.4918 19.2917 12.2001 19.2917Z" fill="#16A75C"/>
</svg>
